<svg width="24" height="24" viewBox="0 0 24 24" fill="none" xmlns="http://www.w3.org/2000/svg">
<mask id="mask0_65_2173" style="mask-type:alpha" maskUnits="userSpaceOnUse" x="0" y="0" width="24" height="24">
<rect width="24" height="24" fill="#D9D9D9"/>
</mask>
<g mask="url(#mask0_65_2173)">
<path fill-rule="evenodd" clip-rule="evenodd" d="M16.5 11C16.5 14.0376 14.0376 16.5 11 16.5C7.96243 16.5 5.5 14.0376 5.5 11C5.5 7.96243 7.96243 5.5 11 5.5C14.0376 5.5 16.5 7.96243 16.5 11ZM15.3911 16.4518C14.1902 17.4202 12.6628 18 11 18C7.13401 18 4 14.866 4 11C4 7.13401 7.13401 4 11 4C14.866 4 18 7.13401 18 11C18 12.6628 17.4202 14.1902 16.4518 15.3911L20.5303 19.4697C20.8232 19.7626 20.8232 20.2374 20.5303 20.5303C20.2374 20.8232 19.7626 20.8232 19.4697 20.5303L15.3911 16.4518Z" fill="#595B5D"/>
</g>
</svg>